HIERARCHY
ROOT SpineBase
{
  OFFSET 0.000000 0.000000 0.000000
  CHANNELS 6 Xposition Yposition Zposition Zrotation Xrotation Yrotation
  JOINT SpineMid
  {
    OFFSET 0.000000 30.281941 0.000000
    CHANNELS 3 Zrotation Xrotation Yrotation
    JOINT SpineShoulder
    {
      OFFSET 0.007981 22.547762 -0.797264
      CHANNELS 3 Zrotation Xrotation Yrotation
      JOINT Neck
      {
        OFFSET -0.007038 7.484312 -0.598708
        CHANNELS 3 Zrotation Xrotation Yrotation
        JOINT Head
        {
          OFFSET -7.465347 11.683515 3.171077
          CHANNELS 3 Zrotation Xrotation Yrotation
          End Site
          {
            OFFSET 0 0 0
          }
        }
      }
      JOINT ShoulderLeft
      {
        OFFSET -9.584992 -4.173182 11.582394
        CHANNELS 3 Zrotation Xrotation Yrotation
        JOINT ElbowLeft
        {
          OFFSET -0.947953 -25.366395 -3.348966
          CHANNELS 3 Zrotation Xrotation Yrotation
          JOINT WristLeft
          {
            OFFSET 1.605387 -15.168305 -12.266495
            CHANNELS 3 Zrotation Xrotation Yrotation
            JOINT HandLeft
            {
              OFFSET 1.367317 -4.366015 -5.661938
              CHANNELS 3 Zrotation Xrotation Yrotation
              JOINT HandTipLeft
              {
                OFFSET 1.154537 -1.095952 0.414346
                CHANNELS 3 Zrotation Xrotation Yrotation
                End Site
                {
                  OFFSET 0 0 0
                }
              }
              JOINT ThumbLeft
              {
                OFFSET -3.149995 1.337167 -3.106493
                CHANNELS 3 Zrotation Xrotation Yrotation
                End Site
                {
                  OFFSET 0 0 0
                }
              }
            }
          }
        }
      }
      JOINT ShoulderRight
      {
        OFFSET 7.653742 -2.647106 -13.500756
        CHANNELS 3 Zrotation Xrotation Yrotation
        JOINT ElbowRight
        {
          OFFSET 0.884853 -22.379507 -6.783709
          CHANNELS 3 Zrotation Xrotation Yrotation
          JOINT WristRight
          {
            OFFSET -15.493856 -15.176302 5.355906
            CHANNELS 3 Zrotation Xrotation Yrotation
            JOINT HandRight
            {
              OFFSET -3.522887 -4.694718 3.570808
              CHANNELS 3 Zrotation Xrotation Yrotation
              JOINT HandTipRight
              {
                OFFSET -3.564949 -2.919680 0.950967
                CHANNELS 3 Zrotation Xrotation Yrotation
                End Site
                {
                  OFFSET 0 0 0
                }
              }
              JOINT ThumbRight
              {
                OFFSET 1.780544 -2.923383 -1.990513
                CHANNELS 3 Zrotation Xrotation Yrotation
                End Site
                {
                  OFFSET 0 0 0
                }
              }
            }
          }
        }
      }
    }
  }
  JOINT HipLeft
  {
    OFFSET -3.564005 -0.098288 1.707922
    CHANNELS 3 Zrotation Xrotation Yrotation
    JOINT KneeLeft
    {
      OFFSET 2.843210 -30.654697 2.134955
      CHANNELS 3 Zrotation Xrotation Yrotation
      JOINT AnkleLeft
      {
        OFFSET 3.217904 -29.695745 5.308153
        CHANNELS 3 Zrotation Xrotation Yrotation
        JOINT FootLeft
        {
          OFFSET -3.668598 -7.185895 -2.455623
          CHANNELS 3 Zrotation Xrotation Yrotation
          End Site
          {
            OFFSET 0 0 0
          }
        }
      }
    }
  }
  JOINT HipRight
  {
    OFFSET 3.427813 2.350483 -8.724389
    CHANNELS 3 Zrotation Xrotation Yrotation
    JOINT KneeRight
    {
      OFFSET 10.405701 -24.060263 -4.894249
      CHANNELS 3 Zrotation Xrotation Yrotation
      JOINT AnkleRight
      {
        OFFSET 9.613937 -34.056798 5.262603
        CHANNELS 3 Zrotation Xrotation Yrotation
        JOINT FootRight
        {
          OFFSET -1.606652 -7.908838 -4.050634
          CHANNELS 3 Zrotation Xrotation Yrotation
          End Site
          {
            OFFSET 0 0 0
          }
        }
      }
    }
  }
}
MOTION
Frames: 14
Frame Time: 0.033333
9.212778 72.873241 333.459977 -0.000000 0.000000 56.169692 0.000000 0.000000 -56.169692 -0.000000 0.000000 0.000000 -0.000000 0.000000 0.000000 0.000000 0.000000 0.000000 -0.000000 0.000000 0.000000 -0.000000 0.000000 0.000000 -0.000000 0.000000 0.000000 -0.000000 0.000000 0.000000 0.000000 0.000000 0.000000 0.000000 0.000000 0.000000 -0.000000 0.000000 0.000000 -0.000000 0.000000 0.000000 -0.000000 0.000000 0.000000 -0.000000 0.000000 0.000000 0.000000 0.000000 0.000000 0.000000 0.000000 0.000000 0.000000 0.000000 -56.169692 -0.000000 0.000000 0.000000 -0.000000 0.000000 0.000000 0.000000 0.000000 0.000000 0.000000 0.000000 -56.169692 -0.000000 0.000000 0.000000 -0.000000 0.000000 0.000000 0.000000 0.000000 0.000000
9.293379 72.909393 333.428726 -0.190367 -0.207143 56.144549 0.278074 -0.042691 -56.144789 -0.000000 0.000000 0.000000 -0.000000 0.000000 0.000000 0.000000 0.000000 0.000000 -0.000000 0.000000 0.000000 -0.000000 0.000000 0.000000 -1.504565 0.058603 1.977009 -6.758220 7.673914 3.848545 0.000000 0.000000 0.000000 0.000000 0.000000 0.000000 -0.000000 0.000000 0.000000 -0.000000 0.000000 0.000000 0.544285 -0.306949 0.646759 1.219103 -2.174610 3.023669 0.000000 0.000000 0.000000 0.000000 0.000000 0.000000 0.278074 -0.042691 -56.144789 -0.000000 0.000000 0.000000 -0.000000 0.000000 0.000000 0.000000 0.000000 0.000000 0.278074 -0.042691 -56.144789 -0.000000 0.000000 0.000000 -0.000000 0.000000 0.000000 0.000000 0.000000 0.000000
9.379363 72.927116 333.404728 -0.331405 -0.433044 55.976271 0.544340 -0.032372 -55.977370 -0.000000 0.000000 0.000000 -0.000000 0.000000 0.000000 0.000000 0.000000 0.000000 -0.648813 -1.373821 0.129401 0.652101 1.372264 -0.144989 -2.709528 0.004494 3.540866 -9.611024 11.705094 5.970736 0.000000 0.000000 0.000000 0.000000 0.000000 0.000000 -0.000000 0.000000 0.000000 0.600025 -0.363398 0.587140 0.348300 -0.282826 0.624058 2.353919 -3.602665 5.257275 0.000000 0.000000 0.000000 0.000000 0.000000 0.000000 0.544340 -0.032372 -55.977370 -0.753128 -0.752611 -0.221025 0.750285 0.755446 0.211132 0.000000 0.000000 0.000000 1.396855 0.009441 -55.752141 -0.445234 -0.728222 -0.227888 -1.090227 -0.229422 0.602265 0.000000 0.000000 0.000000
9.470729 72.926409 333.387984 -0.423179 -0.677732 55.662504 -0.250836 -0.134069 -55.681869 -0.007353 -0.101445 -0.022514 0.460653 1.062225 0.033604 0.000000 0.000000 0.000000 -0.319998 -1.108421 0.218066 0.789335 2.167555 -0.199710 -3.595925 -0.138204 4.667815 -10.617380 14.089311 7.226234 0.000000 0.000000 0.000000 0.000000 0.000000 0.000000 0.181386 0.202836 0.087644 1.151479 0.357414 0.761484 0.309763 -0.509579 0.840482 3.447826 -4.449097 6.870620 0.000000 0.000000 0.000000 0.000000 0.000000 0.000000 0.798319 0.032839 -55.665236 -0.954500 -0.960340 -0.282520 0.949888 0.964902 0.266522 0.000000 0.000000 0.000000 1.935054 0.280105 -55.292272 -0.444062 -1.075234 -0.380235 -2.294419 0.653183 1.048312 0.000000 0.000000 0.000000
9.567479 72.907272 333.378492 -0.465730 -0.941242 55.202238 -0.330132 -0.197996 -55.224885 0.011371 -0.132642 -0.023525 0.479213 1.458308 0.033642 0.000000 0.000000 0.000000 -0.311001 -1.593841 0.252090 0.804512 3.048487 -0.240791 -4.152101 -0.350791 5.342356 -10.690012 15.585779 8.139653 0.000000 0.000000 0.000000 0.000000 0.000000 0.000000 0.476983 0.370501 -0.008586 1.129925 0.476529 1.057888 0.086228 -0.781930 0.952720 4.557569 -4.835354 8.004387 0.000000 0.000000 0.000000 0.000000 0.000000 0.000000 1.038702 0.154668 -55.207466 -1.031319 -1.049222 -0.307294 1.698354 0.230177 0.476109 0.000000 0.000000 0.000000 2.360467 0.731262 -54.664975 -0.294261 -1.411677 -0.556335 -3.950536 2.196397 1.626175 0.000000 0.000000 0.000000
9.669612 72.869706 333.376254 -0.459081 -1.223619 54.595924 -0.406532 -0.272606 -54.619697 0.040598 -0.162503 -0.021387 0.430664 1.875700 0.029203 0.000000 0.000000 0.000000 -0.245425 -2.154788 0.268873 0.696338 4.027114 -0.265799 -4.371086 -0.621517 5.554078 -10.228835 16.522849 8.995813 0.000000 0.000000 0.000000 0.000000 0.000000 0.000000 0.899880 0.588931 -0.174445 0.899928 0.590614 1.386063 -0.345518 -1.088461 0.935069 5.734821 -4.847598 8.766814 0.000000 0.000000 0.000000 0.000000 0.000000 0.000000 1.263332 0.334629 -54.604515 -0.980569 -1.016566 -0.293948 1.776370 -0.097392 0.573476 0.000000 0.000000 0.000000 2.665077 1.363016 -53.870311 0.003847 -1.738381 -0.754913 -6.063062 4.377098 2.378010 0.000000 0.000000 0.000000
9.743184 72.836588 333.374527 -0.455729 -1.479023 53.924468 -0.495271 -0.344561 -53.949896 0.077980 -0.186734 -0.019568 0.389601 2.269207 0.025625 0.000000 0.000000 0.000000 -0.019151 -2.766337 0.267832 0.433608 5.033501 -0.263041 -4.085803 -1.494628 4.914480 -10.585010 17.505172 10.178654 0.000000 0.000000 0.000000 0.000000 0.000000 0.000000 1.814687 1.245232 -0.491407 0.610756 0.382574 1.863062 -1.749670 -1.277252 0.311777 8.186171 -4.205203 9.330374 0.000000 0.000000 0.000000 0.000000 0.000000 0.000000 1.463807 0.502471 -53.936769 -0.850211 -0.931194 -0.259628 1.591701 -0.638973 0.801013 0.000000 0.000000 0.000000 2.858455 2.003642 -53.019595 0.359987 -2.016923 -0.941340 -11.700865 9.874452 4.707943 0.000000 0.000000 0.000000
9.870916 72.861584 333.165986 -0.401676 -1.453255 53.313306 -0.728434 -0.531278 -53.338499 0.102250 -0.162299 -0.015850 0.326766 1.683406 -0.519495 0.000000 0.000000 0.000000 0.040506 -4.214066 0.305910 0.304531 6.729765 -0.307537 -4.309989 -0.390579 5.540432 -4.913101 14.435904 7.745195 0.000000 0.000000 0.000000 0.000000 0.000000 0.000000 2.827827 1.538473 -0.872808 -0.286563 0.446814 2.150268 -2.987571 -1.471474 -0.356246 9.215415 -3.234968 8.897008 0.000000 0.000000 0.000000 0.000000 0.000000 0.000000 1.405412 0.546018 -53.325097 -0.648071 -0.833725 -0.210761 1.311609 -1.080039 0.963338 0.000000 0.000000 0.000000 2.130392 2.448644 -52.377732 1.064562 -1.735577 -0.950186 -11.755413 10.325201 4.686850 0.000000 0.000000 0.000000
10.005881 72.734346 333.229928 -0.276029 -1.943817 51.837263 -0.691774 -0.573387 -51.855881 0.206088 -0.237128 -0.003876 0.305494 2.006519 -0.762789 0.000000 0.000000 0.000000 0.248939 -5.204927 0.295267 -0.161879 8.285019 -0.274420 -3.329051 -2.201291 3.689210 -2.584064 18.421935 13.499183 0.000000 0.000000 0.000000 0.000000 0.000000 0.000000 3.811038 1.966514 -1.347242 -1.557351 0.529863 2.554151 -3.387598 -1.561174 -0.599824 12.313752 -2.582007 9.629835 0.000000 0.000000 0.000000 0.000000 0.000000 0.000000 0.826457 1.804500 -51.934472 1.183935 0.181068 0.097299 4.218086 -6.556006 2.235809 0.000000 0.000000 0.000000 2.261218 3.788294 -50.557384 1.108157 -2.685032 -1.561405 -13.419654 13.573707 6.039648 0.000000 0.000000 0.000000
10.132499 72.544750 333.424712 -0.032474 -2.653300 49.666364 -0.545829 -0.697083 -49.668412 0.292952 -0.351016 0.017346 0.703982 2.694459 -1.139406 0.000000 0.000000 0.000000 0.880880 -5.265191 0.168702 -1.463020 7.566522 -0.083828 -1.232038 -2.151179 0.697804 -3.333433 17.120826 13.653954 0.000000 0.000000 0.000000 0.000000 0.000000 0.000000 3.734891 1.689256 -1.576298 -2.318647 1.283484 2.916966 -2.615956 -2.914697 0.763346 11.075356 -0.621824 6.543538 0.000000 0.000000 0.000000 0.000000 0.000000 0.000000 -0.158551 2.911451 -49.855531 2.936416 1.557843 0.392235 0.603452 -1.834761 0.038878 0.000000 0.000000 0.000000 2.814312 5.748495 -47.822608 1.745948 -3.996282 -2.217271 -17.045152 17.614611 7.986597 0.000000 0.000000 0.000000
10.216871 72.472511 333.783279 0.094541 -3.839591 48.929854 -0.251903 -0.710698 -48.922101 0.420484 -0.459973 0.035058 2.377725 4.439830 -1.481948 0.000000 0.000000 0.000000 1.455423 -5.593975 0.071166 -2.503967 8.133743 0.020575 0.455254 -3.451007 -2.243415 -8.331928 18.580933 16.649272 0.000000 0.000000 0.000000 0.000000 0.000000 0.000000 4.116267 1.845123 -1.974704 -3.449836 1.731036 3.589274 -2.322950 -3.807964 1.410812 10.002665 0.289563 5.269634 0.000000 0.000000 0.000000 0.000000 0.000000 0.000000 -0.446241 4.744073 -49.142270 5.843419 3.243364 0.855380 -1.139614 -3.896253 -0.033905 0.000000 0.000000 0.000000 3.968109 7.800614 -46.586405 2.192768 -5.202584 -2.816535 -20.912179 21.413421 10.217171 0.000000 0.000000 0.000000
10.356853 71.857571 334.612339 0.936728 -5.233932 48.144753 -0.014603 -0.606861 -48.068192 0.425591 -0.478561 0.073907 2.423600 5.733583 -1.829613 0.000000 0.000000 0.000000 1.787202 -6.133521 -0.059116 -3.766990 9.398494 0.228181 0.745941 -0.281011 -1.659181 -3.885976 26.247965 28.815361 0.000000 0.000000 0.000000 0.000000 0.000000 0.000000 4.941781 2.285605 -2.750814 -5.033089 1.645115 5.002192 -3.343872 -4.784896 1.273992 9.607753 2.048051 3.653825 0.000000 0.000000 0.000000 0.000000 0.000000 0.000000 -1.075213 7.783557 -48.232844 8.953233 3.756885 1.209739 -4.477751 -0.631557 -1.776271 0.000000 0.000000 0.000000 5.105092 11.510496 -44.892104 3.399177 -7.445238 -3.768018 -24.215608 24.331554 12.006959 0.000000 0.000000 0.000000
10.502612 70.847657 335.752648 2.204777 -6.746448 47.832946 -0.040351 -0.404254 -47.623708 0.303754 -0.479043 0.117039 1.131511 7.207863 -1.751615 0.000000 0.000000 0.000000 2.235197 -6.427694 -0.225704 -5.246328 10.766731 0.559898 5.114689 0.740523 -7.264217 -18.960178 17.305758 26.500708 0.000000 0.000000 0.000000 0.000000 0.000000 0.000000 6.781927 3.383632 -4.024114 -7.369951 0.761556 7.074499 -4.971996 -6.219014 1.111952 9.992912 4.389915 1.900139 0.000000 0.000000 0.000000 0.000000 0.000000 0.000000 -1.932978 11.519911 -47.618497 11.633303 3.439507 1.451245 -8.287288 6.099639 -3.975067 0.000000 0.000000 0.000000 6.313650 16.111887 -43.506308 5.021114 -10.303379 -4.804875 -26.475309 25.823780 13.008563 0.000000 0.000000 0.000000
10.642493 69.710678 336.907859 3.377016 -8.393259 47.655985 0.625131 -0.443104 -47.317433 0.455805 -0.380304 0.189807 -0.458128 8.725905 -1.629558 0.000000 0.000000 0.000000 1.751665 -6.877969 -0.373922 -6.637633 12.191816 0.937396 17.659072 12.176402 -19.098217 -34.450569 -4.341398 22.049032 0.000000 0.000000 0.000000 0.000000 0.000000 0.000000 6.405567 3.539983 -4.736690 -7.792101 0.757638 8.839791 -8.386730 -9.330786 1.119462 12.685191 8.857504 -1.353773 0.000000 0.000000 0.000000 0.000000 0.000000 0.000000 -2.415598 14.871229 -47.060128 12.360647 2.487239 1.397341 -11.553185 14.053453 -5.080392 0.000000 0.000000 0.000000 7.433478 20.841780 -42.281883 7.117127 -13.133495 -5.623289 -27.027277 25.504059 12.750147 0.000000 0.000000 0.000000
